<svg xmlns="http://www.w3.org/2000/svg" xmlns:xlink="http://www.w3.org/1999/xlink" contentStyleType="text/css" height="820px" preserveAspectRatio="none" style="width:1163px;height:820px;background:#FFFFFF;" version="1.1" viewBox="0 0 1163 820" width="1163px" zoomAndPan="magnify"><title>Register Account</title><defs/><g><text fill="#000000" font-family="sans-serif" font-size="20" font-weight="bold" lengthAdjust="spacing" textLength="192.959" x="486.7993" y="33.5645">Register Account</text><text fill="#000000" font-family="sans-serif" font-size="12" font-style="italic" font-weight="bold" lengthAdjust="spacing" textLength="482.9531" x="341.8022" y="49.4199">from services/firebase/auth.service.js, profile.service.js, firestore.rules</text><rect fill="#FFFFFF" height="543.4609" style="stroke:#888888;stroke-width:1.0;" width="10" x="291.6992" y="185.8125"/><rect fill="#FFFFFF" height="71.2656" style="stroke:#888888;stroke-width:1.0;" width="10" x="533.8335" y="214.9453"/><rect fill="#FFFFFF" height="148.7969" style="stroke:#888888;stroke-width:1.0;" width="10" x="814.9932" y="402.875"/><rect fill="#FFFFFF" height="83.3984" style="stroke:#888888;stroke-width:1.0;" width="10" x="1080.8677" y="447.1406"/><rect fill="none" height="61.3984" rx="4" ry="4" style="stroke:#000000;stroke-width:1.5;" width="398.4775" x="759.0801" y="462.1406"/><rect fill="none" height="90.2031" rx="4" ry="4" style="stroke:#000000;stroke-width:1.5;" width="341.1079" x="10" y="632.0703"/><line style="stroke:#888888;stroke-width:0.5;stroke-dasharray:5.0,5.0;" x1="56" x2="56" y1="139.5469" y2="739.2734"/><line style="stroke:#888888;stroke-width:0.5;stroke-dasharray:5.0,5.0;" x1="296.2905" x2="296.2905" y1="139.5469" y2="739.2734"/><line style="stroke:#888888;stroke-width:0.5;stroke-dasharray:5.0,5.0;" x1="538.5566" x2="538.5566" y1="139.5469" y2="739.2734"/><line style="stroke:#888888;stroke-width:0.5;stroke-dasharray:5.0,5.0;" x1="819.0801" x2="819.0801" y1="139.5469" y2="739.2734"/><line style="stroke:#888888;stroke-width:0.5;stroke-dasharray:5.0,5.0;" x1="1085.1777" x2="1085.1777" y1="139.5469" y2="739.2734"/><text fill="#000000" font-family="sans-serif" font-size="14" lengthAdjust="spacing" textLength="66.8965" x="20" y="136.2451">New User</text><ellipse cx="56.4482" cy="71.75" fill="#E7EDF5" rx="8" ry="8" style="stroke:#2B6FB3;stroke-width:0.5;"/><path d="M56.4482,79.75 L56.4482,106.75 M43.4482,87.75 L69.4482,87.75 M56.4482,106.75 L43.4482,121.75 M56.4482,106.75 L69.4482,121.75 " fill="none" style="stroke:#2B6FB3;stroke-width:0.5;"/><text fill="#000000" font-family="sans-serif" font-size="14" lengthAdjust="spacing" textLength="66.8965" x="20" y="751.2686">New User</text><ellipse cx="56.4482" cy="763.0703" fill="#E7EDF5" rx="8" ry="8" style="stroke:#2B6FB3;stroke-width:0.5;"/><path d="M56.4482,771.0703 L56.4482,798.0703 M43.4482,779.0703 L69.4482,779.0703 M56.4482,798.0703 L43.4482,813.0703 M56.4482,798.0703 L69.4482,813.0703 " fill="none" style="stroke:#2B6FB3;stroke-width:0.5;"/><text fill="#000000" font-family="sans-serif" font-size="14" lengthAdjust="spacing" textLength="82.8174" x="252.2905" y="136.2451">SignupPage</text><path d="M276.1992,95.25 L276.1992,119.25 M276.1992,107.25 L293.1992,107.25 " fill="none" style="stroke:#181818;stroke-width:0.5;"/><ellipse cx="305.1992" cy="107.25" fill="#E2E2F0" rx="12" ry="12" style="stroke:#181818;stroke-width:0.5;"/><text fill="#000000" font-family="sans-serif" font-size="14" lengthAdjust="spacing" textLength="82.8174" x="252.2905" y="751.2686">SignupPage</text><path d="M276.1992,758.5703 L276.1992,782.5703 M276.1992,770.5703 L293.1992,770.5703 " fill="none" style="stroke:#181818;stroke-width:0.5;"/><ellipse cx="305.1992" cy="770.5703" fill="#E2E2F0" rx="12" ry="12" style="stroke:#181818;stroke-width:0.5;"/><text fill="#000000" font-family="sans-serif" font-size="14" lengthAdjust="spacing" textLength="84.5537" x="493.5566" y="136.2451">AuthService</text><ellipse cx="538.8335" cy="107.25" fill="#E2E2F0" rx="12" ry="12" style="stroke:#181818;stroke-width:0.5;"/><polygon fill="#181818" points="534.8335,95.25,540.8335,90.25,538.8335,95.25,540.8335,100.25,534.8335,95.25" style="stroke:#181818;stroke-width:1.0;"/><text fill="#000000" font-family="sans-serif" font-size="14" lengthAdjust="spacing" textLength="84.5537" x="493.5566" y="751.2686">AuthService</text><ellipse cx="538.8335" cy="770.5703" fill="#E2E2F0" rx="12" ry="12" style="stroke:#181818;stroke-width:0.5;"/><polygon fill="#181818" points="534.8335,758.5703,540.8335,753.5703,538.8335,758.5703,540.8335,763.5703,534.8335,758.5703" style="stroke:#181818;stroke-width:1.0;"/><text fill="#000000" font-family="sans-serif" font-size="14" lengthAdjust="spacing" textLength="95.8262" x="769.0801" y="136.2451">ProfileService</text><ellipse cx="819.9932" cy="107.25" fill="#E2E2F0" rx="12" ry="12" style="stroke:#181818;stroke-width:0.5;"/><polygon fill="#181818" points="815.9932,95.25,821.9932,90.25,819.9932,95.25,821.9932,100.25,815.9932,95.25" style="stroke:#181818;stroke-width:1.0;"/><text fill="#000000" font-family="sans-serif" font-size="14" lengthAdjust="spacing" textLength="95.8262" x="769.0801" y="751.2686">ProfileService</text><ellipse cx="819.9932" cy="770.5703" fill="#E2E2F0" rx="12" ry="12" style="stroke:#181818;stroke-width:0.5;"/><polygon fill="#181818" points="815.9932,758.5703,821.9932,753.5703,819.9932,758.5703,821.9932,763.5703,815.9932,758.5703" style="stroke:#181818;stroke-width:1.0;"/><text fill="#000000" font-family="sans-serif" font-size="14" lengthAdjust="spacing" textLength="117.3799" x="1024.1777" y="136.2451">users / providers</text><path d="M1067.8677,87.25 C1067.8677,77.25 1085.8677,77.25 1085.8677,77.25 C1085.8677,77.25 1103.8677,77.25 1103.8677,87.25 L1103.8677,113.25 C1103.8677,123.25 1085.8677,123.25 1085.8677,123.25 C1085.8677,123.25 1067.8677,123.25 1067.8677,113.25 L1067.8677,87.25 " fill="#E2E2F0" style="stroke:#181818;stroke-width:1.5;"/><path d="M1067.8677,87.25 C1067.8677,97.25 1085.8677,97.25 1085.8677,97.25 C1085.8677,97.25 1103.8677,97.25 1103.8677,87.25 " fill="none" style="stroke:#181818;stroke-width:1.5;"/><text fill="#000000" font-family="sans-serif" font-size="14" lengthAdjust="spacing" textLength="117.3799" x="1024.1777" y="751.2686">users / providers</text><path d="M1067.8677,764.5703 C1067.8677,754.5703 1085.8677,754.5703 1085.8677,754.5703 C1085.8677,754.5703 1103.8677,754.5703 1103.8677,764.5703 L1103.8677,790.5703 C1103.8677,800.5703 1085.8677,800.5703 1085.8677,800.5703 C1085.8677,800.5703 1067.8677,800.5703 1067.8677,790.5703 L1067.8677,764.5703 " fill="#E2E2F0" style="stroke:#181818;stroke-width:1.5;"/><path d="M1067.8677,764.5703 C1067.8677,774.5703 1085.8677,774.5703 1085.8677,774.5703 C1085.8677,774.5703 1103.8677,774.5703 1103.8677,764.5703 " fill="none" style="stroke:#181818;stroke-width:1.5;"/><rect fill="#FFFFFF" height="543.4609" style="stroke:#888888;stroke-width:1.0;" width="10" x="291.6992" y="185.8125"/><rect fill="#FFFFFF" height="71.2656" style="stroke:#888888;stroke-width:1.0;" width="10" x="533.8335" y="214.9453"/><rect fill="#FFFFFF" height="148.7969" style="stroke:#888888;stroke-width:1.0;" width="10" x="814.9932" y="402.875"/><rect fill="#FFFFFF" height="83.3984" style="stroke:#888888;stroke-width:1.0;" width="10" x="1080.8677" y="447.1406"/><polygon fill="#222222" points="279.6992,181.8125,289.6992,185.8125,279.6992,189.8125,283.6992,185.8125" style="stroke:#222222;stroke-width:1.0;"/><line style="stroke:#222222;stroke-width:1.2;" x1="56.4482" x2="285.6992" y1="185.8125" y2="185.8125"/><text fill="#000000" font-family="sans-serif" font-size="13" font-weight="bold" lengthAdjust="spacing" textLength="9.0454" x="63.4482" y="173.1802">1</text><text fill="#000000" font-family="sans-serif" font-size="13" lengthAdjust="spacing" textLength="157.0347" x="76.4937" y="165.6138">submitSignupForm(role,</text><text fill="#000000" font-family="sans-serif" font-size="13" lengthAdjust="spacing" textLength="4.1323" x="233.5283" y="165.6138">&#160;</text><text fill="#000000" font-family="sans-serif" font-size="13" lengthAdjust="spacing" textLength="39.9839" x="237.6606" y="165.6138">email,</text><text fill="#000000" font-family="sans-serif" font-size="13" lengthAdjust="spacing" textLength="66.0791" x="76.4937" y="180.7466">password,</text><text fill="#000000" font-family="sans-serif" font-size="13" lengthAdjust="spacing" textLength="4.1323" x="142.5728" y="180.7466">&#160;</text><text fill="#000000" font-family="sans-serif" font-size="13" lengthAdjust="spacing" textLength="39.895" x="146.7051" y="180.7466">fields)</text><polygon fill="#222222" points="521.8335,210.9453,531.8335,214.9453,521.8335,218.9453,525.8335,214.9453" style="stroke:#222222;stroke-width:1.0;"/><line style="stroke:#222222;stroke-width:1.2;" x1="301.6992" x2="527.8335" y1="214.9453" y2="214.9453"/><text fill="#000000" font-family="sans-serif" font-size="13" font-weight="bold" lengthAdjust="spacing" textLength="9.0454" x="308.6992" y="209.8794">2</text><text fill="#000000" font-family="sans-serif" font-size="13" lengthAdjust="spacing" textLength="57.9858" x="321.7446" y="209.8794">signUp({</text><text fill="#000000" font-family="sans-serif" font-size="13" lengthAdjust="spacing" textLength="4.1323" x="379.7305" y="209.8794">&#160;</text><text fill="#000000" font-family="sans-serif" font-size="13" lengthAdjust="spacing" textLength="39.9839" x="383.8628" y="209.8794">email,</text><text fill="#000000" font-family="sans-serif" font-size="13" lengthAdjust="spacing" textLength="4.1323" x="423.8467" y="209.8794">&#160;</text><text fill="#000000" font-family="sans-serif" font-size="13" lengthAdjust="spacing" textLength="61.9468" x="427.979" y="209.8794">password</text><text fill="#000000" font-family="sans-serif" font-size="13" lengthAdjust="spacing" textLength="4.1323" x="489.9258" y="209.8794">&#160;</text><text fill="#000000" font-family="sans-serif" font-size="13" lengthAdjust="spacing" textLength="13.3428" x="494.0581" y="209.8794">})</text><line style="stroke:#222222;stroke-width:1.2;" x1="543.8335" x2="585.8335" y1="244.0781" y2="244.0781"/><line style="stroke:#222222;stroke-width:1.2;" x1="585.8335" x2="585.8335" y1="244.0781" y2="257.0781"/><line style="stroke:#222222;stroke-width:1.2;" x1="544.8335" x2="585.8335" y1="257.0781" y2="257.0781"/><polygon fill="#222222" points="554.8335,253.0781,544.8335,257.0781,554.8335,261.0781,550.8335,257.0781" style="stroke:#222222;stroke-width:1.0;"/><text fill="#000000" font-family="sans-serif" font-size="13" font-weight="bold" lengthAdjust="spacing" textLength="9.0454" x="550.8335" y="239.0122">3</text><text fill="#000000" font-family="sans-serif" font-size="13" lengthAdjust="spacing" textLength="234.1143" x="563.8789" y="239.0122">createUserWithEmailAndPassword()</text><polygon fill="#222222" points="312.6992,282.2109,302.6992,286.2109,312.6992,290.2109,308.6992,286.2109" style="stroke:#222222;stroke-width:1.0;"/><line style="stroke:#222222;stroke-width:1.2;stroke-dasharray:2.0,2.0;" x1="306.6992" x2="537.8335" y1="286.2109" y2="286.2109"/><text fill="#000000" font-family="sans-serif" font-size="13" font-weight="bold" lengthAdjust="spacing" textLength="9.0454" x="318.6992" y="281.145">4</text><text fill="#000000" font-family="sans-serif" font-size="13" lengthAdjust="spacing" textLength="24.2354" x="331.7446" y="281.145">uid,</text><text fill="#000000" font-family="sans-serif" font-size="13" lengthAdjust="spacing" textLength="4.1323" x="355.98" y="281.145">&#160;</text><text fill="#000000" font-family="sans-serif" font-size="13" lengthAdjust="spacing" textLength="35.8516" x="360.1123" y="281.145">email</text><line style="stroke:#222222;stroke-width:1.2;" x1="301.6992" x2="343.6992" y1="345.6094" y2="345.6094"/><line style="stroke:#222222;stroke-width:1.2;" x1="343.6992" x2="343.6992" y1="345.6094" y2="358.6094"/><line style="stroke:#222222;stroke-width:1.2;" x1="302.6992" x2="343.6992" y1="358.6094" y2="358.6094"/><polygon fill="#222222" points="312.6992,354.6094,302.6992,358.6094,312.6992,362.6094,308.6992,358.6094" style="stroke:#222222;stroke-width:1.0;"/><text fill="#000000" font-family="sans-serif" font-size="13" font-weight="bold" lengthAdjust="spacing" textLength="9.0454" x="308.6992" y="325.4106">5</text><text fill="#000000" font-family="sans-serif" font-size="13" lengthAdjust="spacing" textLength="61.7119" x="321.7446" y="310.2778">approved</text><text fill="#000000" font-family="sans-serif" font-size="13" lengthAdjust="spacing" textLength="4.1323" x="383.4565" y="310.2778">&#160;</text><text fill="#000000" font-family="sans-serif" font-size="13" lengthAdjust="spacing" textLength="10.8926" x="387.5889" y="310.2778">=</text><text fill="#000000" font-family="sans-serif" font-size="13" lengthAdjust="spacing" textLength="4.1323" x="398.4814" y="310.2778">&#160;</text><text fill="#000000" font-family="sans-serif" font-size="13" lengthAdjust="spacing" textLength="105.9614" x="402.6138" y="310.2778">govEmail(email)</text><text fill="#000000" font-family="sans-serif" font-size="13" lengthAdjust="spacing" textLength="58.7603" x="321.7446" y="325.4106">(*.gov.sg</text><text fill="#000000" font-family="sans-serif" font-size="13" lengthAdjust="spacing" textLength="4.1323" x="380.5049" y="325.4106">&#160;</text><text fill="#000000" font-family="sans-serif" font-size="13" lengthAdjust="spacing" textLength="4.3799" x="384.6372" y="325.4106">/</text><text fill="#000000" font-family="sans-serif" font-size="13" lengthAdjust="spacing" textLength="4.1323" x="389.0171" y="325.4106">&#160;</text><text fill="#000000" font-family="sans-serif" font-size="13" lengthAdjust="spacing" textLength="58.4111" x="393.1494" y="325.4106">*.edu.sg,</text><text fill="#000000" font-family="sans-serif" font-size="13" lengthAdjust="spacing" textLength="4.1323" x="451.5605" y="325.4106">&#160;</text><text fill="#000000" font-family="sans-serif" font-size="13" lengthAdjust="spacing" textLength="61.1406" x="455.6929" y="325.4106">anchored</text><text fill="#000000" font-family="sans-serif" font-size="13" lengthAdjust="spacing" textLength="27.5806" x="321.7446" y="340.5435">with</text><text fill="#000000" font-family="sans-serif" font-size="13" lengthAdjust="spacing" textLength="4.1323" x="349.3252" y="340.5435">&#160;</text><text fill="#000000" font-family="sans-serif" font-size="13" lengthAdjust="spacing" textLength="13.3428" x="353.4575" y="340.5435">$)</text><polygon fill="#222222" points="802.9932,398.875,812.9932,402.875,802.9932,406.875,806.9932,402.875" style="stroke:#222222;stroke-width:1.0;"/><line style="stroke:#222222;stroke-width:1.2;" x1="301.6992" x2="808.9932" y1="402.875" y2="402.875"/><text fill="#000000" font-family="sans-serif" font-size="13" font-weight="bold" lengthAdjust="spacing" textLength="9.0454" x="308.6992" y="390.2427">6</text><text fill="#000000" font-family="sans-serif" font-size="13" lengthAdjust="spacing" textLength="95.8306" x="321.7446" y="382.6763">createProfile({</text><text fill="#000000" font-family="sans-serif" font-size="13" lengthAdjust="spacing" textLength="4.1323" x="417.5752" y="382.6763">&#160;</text><text fill="#000000" font-family="sans-serif" font-size="13" lengthAdjust="spacing" textLength="24.2354" x="421.7075" y="382.6763">uid,</text><text fill="#000000" font-family="sans-serif" font-size="13" lengthAdjust="spacing" textLength="4.1323" x="445.9429" y="382.6763">&#160;</text><text fill="#000000" font-family="sans-serif" font-size="13" lengthAdjust="spacing" textLength="29.0405" x="450.0752" y="382.6763">role,</text><text fill="#000000" font-family="sans-serif" font-size="13" lengthAdjust="spacing" textLength="65.8442" x="321.7446" y="397.8091">approved,</text><text fill="#000000" font-family="sans-serif" font-size="13" lengthAdjust="spacing" textLength="4.1323" x="387.5889" y="397.8091">&#160;</text><text fill="#000000" font-family="sans-serif" font-size="13" lengthAdjust="spacing" textLength="47.2202" x="391.7212" y="397.8091">...fields</text><text fill="#000000" font-family="sans-serif" font-size="13" lengthAdjust="spacing" textLength="4.1323" x="438.9414" y="397.8091">&#160;</text><text fill="#000000" font-family="sans-serif" font-size="13" lengthAdjust="spacing" textLength="13.3428" x="443.0737" y="397.8091">})</text><polygon fill="#222222" points="1068.8677,443.1406,1078.8677,447.1406,1068.8677,451.1406,1072.8677,447.1406" style="stroke:#222222;stroke-width:1.0;"/><line style="stroke:#222222;stroke-width:1.2;" x1="824.9932" x2="1074.8677" y1="447.1406" y2="447.1406"/><text fill="#000000" font-family="sans-serif" font-size="13" font-weight="bold" lengthAdjust="spacing" textLength="9.0454" x="831.9932" y="434.5083">7</text><text fill="#000000" font-family="sans-serif" font-size="13" lengthAdjust="spacing" textLength="130.3364" x="845.0386" y="426.9419">setDoc(users/{uid},</text><text fill="#000000" font-family="sans-serif" font-size="13" lengthAdjust="spacing" textLength="4.1323" x="975.375" y="426.9419">&#160;</text><text fill="#000000" font-family="sans-serif" font-size="13" lengthAdjust="spacing" textLength="8.271" x="979.5073" y="426.9419">{</text><text fill="#000000" font-family="sans-serif" font-size="13" lengthAdjust="spacing" textLength="4.1323" x="987.7783" y="426.9419">&#160;</text><text fill="#000000" font-family="sans-serif" font-size="13" lengthAdjust="spacing" textLength="39.9839" x="991.9106" y="426.9419">email,</text><text fill="#000000" font-family="sans-serif" font-size="13" lengthAdjust="spacing" textLength="29.0405" x="845.0386" y="442.0747">role,</text><text fill="#000000" font-family="sans-serif" font-size="13" lengthAdjust="spacing" textLength="4.1323" x="874.0791" y="442.0747">&#160;</text><text fill="#000000" font-family="sans-serif" font-size="13" lengthAdjust="spacing" textLength="61.7119" x="878.2114" y="442.0747">approved</text><text fill="#000000" font-family="sans-serif" font-size="13" lengthAdjust="spacing" textLength="4.1323" x="939.9233" y="442.0747">&#160;</text><text fill="#000000" font-family="sans-serif" font-size="13" lengthAdjust="spacing" textLength="13.3428" x="944.0557" y="442.0747">})</text><path d="M763.0801,462.1406 L823.5229,462.1406 L823.5229,469.2734 L813.5229,479.2734 L759.0801,479.2734 L759.0801,466.1406 A4,4 0 0 1 763.0801,462.1406 " fill="#EEEEEE" style="stroke:#000000;stroke-width:1.5;"/><rect fill="none" height="61.3984" rx="4" ry="4" style="stroke:#000000;stroke-width:1.5;" width="398.4775" x="759.0801" y="462.1406"/><text fill="#000000" font-family="sans-serif" font-size="13" font-weight="bold" lengthAdjust="spacing" textLength="19.4429" x="774.0801" y="475.2075">alt</text><text fill="#000000" font-family="sans-serif" font-size="11" font-weight="bold" lengthAdjust="spacing" textLength="235.1572" x="838.5229" y="474.3511">[role = army-unit | army-ambassador]</text><polygon fill="#222222" points="1068.8677,511.5391,1078.8677,515.5391,1068.8677,519.5391,1072.8677,515.5391" style="stroke:#222222;stroke-width:1.0;"/><line style="stroke:#222222;stroke-width:1.2;" x1="824.9932" x2="1074.8677" y1="515.5391" y2="515.5391"/><text fill="#000000" font-family="sans-serif" font-size="13" font-weight="bold" lengthAdjust="spacing" textLength="9.0454" x="831.9932" y="502.9067">8</text><text fill="#000000" font-family="sans-serif" font-size="13" lengthAdjust="spacing" textLength="165.7183" x="845.0386" y="495.3403">claimProvider(providerId)</text><text fill="#000000" font-family="sans-serif" font-size="13" lengthAdjust="spacing" textLength="10.8926" x="845.0386" y="510.4731">&#8594;</text><text fill="#000000" font-family="sans-serif" font-size="13" lengthAdjust="spacing" textLength="4.1323" x="855.9312" y="510.4731">&#160;</text><text fill="#000000" font-family="sans-serif" font-size="13" lengthAdjust="spacing" textLength="203.8042" x="860.0635" y="510.4731">setDoc(providers/{providerId})</text><polygon fill="#222222" points="312.6992,547.6719,302.6992,551.6719,312.6992,555.6719,308.6992,551.6719" style="stroke:#222222;stroke-width:1.0;"/><line style="stroke:#222222;stroke-width:1.2;stroke-dasharray:2.0,2.0;" x1="306.6992" x2="818.9932" y1="551.6719" y2="551.6719"/><text fill="#000000" font-family="sans-serif" font-size="13" font-weight="bold" lengthAdjust="spacing" textLength="9.0454" x="318.6992" y="546.606">9</text><text fill="#000000" font-family="sans-serif" font-size="13" lengthAdjust="spacing" textLength="41.3486" x="331.7446" y="546.606">profile</text><text fill="#000000" font-family="sans-serif" font-size="13" lengthAdjust="spacing" textLength="4.1323" x="373.0933" y="546.606">&#160;</text><text fill="#000000" font-family="sans-serif" font-size="13" lengthAdjust="spacing" textLength="49.8037" x="377.2256" y="546.606">created</text><path d="M487,568.6719 L487,615.6719 A4,4 0 0 0 491,619.6719 L1132,619.6719 A4,4 0 0 0 1136,615.6719 L1136,574.6719 L1126,564.6719 L491,564.6719 A4,4 0 0 0 487,568.6719 " fill="#FEFFDD" style="stroke:#181818;stroke-width:0.5;"/><path d="M1126,564.6719 L1126,572.6719 A2,2 0 0 0 1128,574.6719 L1136,574.6719 L1126,564.6719 " fill="#FEFFDD" style="stroke:#181818;stroke-width:0.5;"/><text fill="#000000" font-family="sans-serif" font-size="13" lengthAdjust="spacing" textLength="275.6025" x="669.1992" y="581.7388">Firestore rule: allow create if uid matches,</text><text fill="#000000" font-family="sans-serif" font-size="13" lengthAdjust="spacing" textLength="239.9668" x="669.1992" y="596.8716">email matches token, role approved,</text><text fill="#000000" font-family="sans-serif" font-size="13" lengthAdjust="spacing" textLength="267.2617" x="669.1992" y="612.0044">and approved == govEmail(token.email)</text><path d="M14,632.0703 L74.4429,632.0703 L74.4429,639.2031 L64.4429,649.2031 L10,649.2031 L10,636.0703 A4,4 0 0 1 14,632.0703 " fill="#EEEEEE" style="stroke:#000000;stroke-width:1.5;"/><rect fill="none" height="90.2031" rx="4" ry="4" style="stroke:#000000;stroke-width:1.5;" width="341.1079" x="10" y="632.0703"/><text fill="#000000" font-family="sans-serif" font-size="13" font-weight="bold" lengthAdjust="spacing" textLength="19.4429" x="25" y="645.1372">alt</text><text fill="#000000" font-family="sans-serif" font-size="11" font-weight="bold" lengthAdjust="spacing" textLength="120.7798" x="89.4429" y="644.2808">[approved == true]</text><polygon fill="#222222" points="67.4482,666.3359,57.4482,670.3359,67.4482,674.3359,63.4482,670.3359" style="stroke:#222222;stroke-width:1.0;"/><line style="stroke:#222222;stroke-width:1.2;" x1="61.4482" x2="290.6992" y1="670.3359" y2="670.3359"/><text fill="#000000" font-family="sans-serif" font-size="13" font-weight="bold" lengthAdjust="spacing" textLength="18.0908" x="73.4482" y="665.27">10</text><text fill="#000000" font-family="sans-serif" font-size="13" lengthAdjust="spacing" textLength="50.7939" x="95.5391" y="665.27">redirect</text><text fill="#000000" font-family="sans-serif" font-size="13" lengthAdjust="spacing" textLength="4.1323" x="146.333" y="665.27">&#160;</text><text fill="#000000" font-family="sans-serif" font-size="13" lengthAdjust="spacing" textLength="10.8926" x="150.4653" y="665.27">&#8594;</text><text fill="#000000" font-family="sans-serif" font-size="13" lengthAdjust="spacing" textLength="4.1323" x="161.3579" y="665.27">&#160;</text><text fill="#000000" font-family="sans-serif" font-size="13" lengthAdjust="spacing" textLength="119.209" x="165.4902" y="665.27">/{role}/dashboard</text><line style="stroke:#000000;stroke-width:1.0;stroke-dasharray:2.0,2.0;" x1="10" x2="351.1079" y1="679.3359" y2="679.3359"/><text fill="#000000" font-family="sans-serif" font-size="11" font-weight="bold" lengthAdjust="spacing" textLength="124.792" x="15" y="689.5464">[approved == false]</text><polygon fill="#222222" points="67.4482,710.2734,57.4482,714.2734,67.4482,718.2734,63.4482,714.2734" style="stroke:#222222;stroke-width:1.0;"/><line style="stroke:#222222;stroke-width:1.2;" x1="61.4482" x2="290.6992" y1="714.2734" y2="714.2734"/><text fill="#000000" font-family="sans-serif" font-size="13" font-weight="bold" lengthAdjust="spacing" textLength="18.0908" x="73.4482" y="709.2075">11</text><text fill="#000000" font-family="sans-serif" font-size="13" lengthAdjust="spacing" textLength="50.7939" x="95.5391" y="709.2075">redirect</text><text fill="#000000" font-family="sans-serif" font-size="13" lengthAdjust="spacing" textLength="4.1323" x="146.333" y="709.2075">&#160;</text><text fill="#000000" font-family="sans-serif" font-size="13" lengthAdjust="spacing" textLength="10.8926" x="150.4653" y="709.2075">&#8594;</text><text fill="#000000" font-family="sans-serif" font-size="13" lengthAdjust="spacing" textLength="4.1323" x="161.3579" y="709.2075">&#160;</text><text fill="#000000" font-family="sans-serif" font-size="13" lengthAdjust="spacing" textLength="118.9551" x="165.4902" y="709.2075">/pending-approval</text><!--SRC=[XLHDZzCm4BtxLumAXowqoMuHiAgMIkLBGW9KiI0kN1nxqffDx68xsrtANla1_4H-2MCxQTE2H4x9p9itRzxOSLTAhxdbDHHSN2sjQRHyOIfZORDI7fdRvHr-Qr0Bd5jhDXzNIbnfT0xEiaaF5Ek5iHejdFVYDRzvHsY-n4lr7M4oEVq7CsmPm5nuOvyRAz4c7VScnPEoUBHB7ScyXqzHbeyflU3MAw7MNFj_r_S1non5YQUHvQqgyQtIU41n7fyW8GpVySQ7Wk-Dnxy8ox9y8ieksoShplda4QVCStDpa13nONSzQxpoLVBbjT4-UNVQVVbRoXMcabJ24l83BfNpPFvS21BZl-WBHqNJiydiGirAQuBRzbe9T7cfB1RSOSuRlyhQSFRLZM1jJQagF8W5j2F_CRDDXUuYLxEBF73F6EDXCJ1uZnluH3K3u0uQUc55C8JRMnXSggLkrWiw037huYSJD8Or5Gpc9E4oTOlv86cVNIGzVK0haKdkUHW21g6XWpnahXMPwY9E5YIlyKOtTK6sd34MS32UjHBWuKEOWckAMlcayRMnzP3QuWYmvgeYExXp6rfKC04hwKvOMqiiGMZBGR5Fw-7sk0hkJbX4TUWf28lSOx3gi_AhLm4_rtBH5Wmx_5xaU4nLZPAjf5x_zcqAV1q6HmdFO6ck8-SmWa- -wE63Z6APMv8z3pAK3RsEW6knedrAs908kD-VgdKt3PRKjZkW-QAEP53NT0HPbYLpmhXTEJ79edK7_KiZXd59-POexaQmi-gGB30mNlaOfd6uhM_7ZLOUVgHtNjF67PV6qaqux4LgAwxgHNi6XjrXU2F9Xjy_VtKwTeSat-uXr1UrP1BfFAjhcZcSdXt_qJQwU797CgRfdWFfjt7Ber1BzxIxDH1k3MsfgiochG5L1Y_ft-Z52js8uD6FBW3UNA5ExkoT9XJNihVkthvZGPQs7aQ1e2bvsSTxso3HxDSThyGKw2oGNE4X69LlGz-xN7AtAWotac7by82dv1JvFz6Qb2Yz7ATINXsRtFuB_W00]--></g></svg>