<svg xmlns="http://www.w3.org/2000/svg" xmlns:xlink="http://www.w3.org/1999/xlink" contentStyleType="text/css" height="426px" preserveAspectRatio="none" style="width:566px;height:426px;background:#FFFFFF;" version="1.1" viewBox="0 0 566 426" width="566px" zoomAndPan="magnify"><title>Account Approval Status</title><defs/><g><text fill="#000000" font-family="sans-serif" font-size="14" font-weight="bold" lengthAdjust="spacing" textLength="195.4121" x="178.6926" y="22.9951">Account Approval Status</text><ellipse cx="280.5" cy="53.2969" fill="#222222" rx="10" ry="10" style="stroke:#222222;stroke-width:1.0;"/><g id="Approved"><rect fill="#F1F1F1" height="50" rx="12.5" ry="12.5" style="stroke:#181818;stroke-width:0.5;" width="87.457" x="237" y="287.2969"/><line style="stroke:#181818;stroke-width:0.5;" x1="237" x2="324.457" y1="313.5938" y2="313.5938"/><text fill="#000000" font-family="sans-serif" font-size="14" lengthAdjust="spacing" textLength="67.457" x="247" y="305.292">Approved</text></g><g id="PendingApproval"><rect fill="#F1F1F1" height="50" rx="12.5" ry="12.5" style="stroke:#181818;stroke-width:0.5;" width="138.8906" x="7" y="157.7969"/><line style="stroke:#181818;stroke-width:0.5;" x1="7" x2="145.8906" y1="184.0938" y2="184.0938"/><text fill="#000000" font-family="sans-serif" font-size="14" lengthAdjust="spacing" textLength="118.8906" x="17" y="175.792">PendingApproval</text></g><ellipse cx="280.5" cy="409.2969" fill="none" rx="11" ry="11" style="stroke:#222222;stroke-width:1.0;"/><ellipse cx="280.5" cy="409.2969" fill="#222222" rx="6" ry="6" style="stroke:#222222;stroke-width:1.0;"/><g id="elem_GMN10"><path d="M181,155.2969 L181,178.7969 L146.43,182.7969 L181,186.7969 L181,210.6953 A0,0 0 0 0 181,210.6953 L413.8848,210.6953 A0,0 0 0 0 413.8848,210.6953 L413.8848,165.2969 L403.8848,155.2969 L181,155.2969 A0,0 0 0 0 181,155.2969 " fill="#FEFFDD" style="stroke:#181818;stroke-width:0.5;"/><path d="M403.8848,155.2969 L403.8848,165.2969 L413.8848,165.2969 L403.8848,155.2969 " fill="#FEFFDD" style="stroke:#181818;stroke-width:0.5;"/><text fill="#000000" font-family="sans-serif" font-size="13" lengthAdjust="spacing" textLength="203.6074" x="187" y="172.3638">ProtectedRoute redirects every</text><text fill="#000000" font-family="sans-serif" font-size="13" lengthAdjust="spacing" textLength="199.9893" x="187" y="187.4966">visit to /pending-approval until</text><text fill="#000000" font-family="sans-serif" font-size="13" lengthAdjust="spacing" textLength="211.8848" x="187" y="202.6294">an Admin approves the account.</text></g><g id="elem_GMN13"><path d="M359,292.2969 L359,308.2969 L324.2,312.2969 L359,316.2969 L359,332.5625 A0,0 0 0 0 359,332.5625 L559.7974,332.5625 A0,0 0 0 0 559.7974,332.5625 L559.7974,302.2969 L549.7974,292.2969 L359,292.2969 A0,0 0 0 0 359,292.2969 " fill="#FEFFDD" style="stroke:#181818;stroke-width:0.5;"/><path d="M549.7974,292.2969 L549.7974,302.2969 L559.7974,302.2969 L549.7974,292.2969 " fill="#FEFFDD" style="stroke:#181818;stroke-width:0.5;"/><text fill="#000000" font-family="sans-serif" font-size="13" lengthAdjust="spacing" textLength="179.7974" x="365" y="309.3638">Full access to the account's</text><text fill="#000000" font-family="sans-serif" font-size="13" lengthAdjust="spacing" textLength="119.9897" x="365" y="324.4966">role-routed pages.</text></g><!--link *start* to Approved--><g id="link_*start*_Approved"><path d="M289.95,57.1169 C317.9,66.0469 400.14,96.5969 431.5,155.2969 C443.02,176.8569 443.02,188.7369 431.5,210.2969 C419.69,232.4169 369.5498,263.1118 329.2698,285.4018 " fill="none" id="*start*-to-Approved" style="stroke:#181818;stroke-width:1.0;"/><polygon fill="#181818" points="324.02,288.3069,333.8314,287.4491,328.3948,285.8859,329.9579,280.4493,324.02,288.3069" style="stroke:#181818;stroke-width:1.0;"/><text fill="#000000" font-family="sans-serif" font-size="13" lengthAdjust="spacing" textLength="82.4878" x="450.7039" y="179.8638">createProfile</text><text fill="#000000" font-family="sans-serif" font-size="13" lengthAdjust="spacing" textLength="102.8955" x="440.5" y="194.9966">(gov/edu email)</text></g><!--link *start* to PendingApproval--><g id="link_*start*_PendingApproval"><path d="M272.25,59.4569 C246.16,75.7569 169.3586,123.7678 120.1386,154.5178 " fill="none" id="*start*-to-PendingApproval" style="stroke:#181818;stroke-width:1.0;"/><polygon fill="#181818" points="115.05,157.6969,124.8022,156.3207,119.2905,155.0477,120.5635,149.5359,115.05,157.6969" style="stroke:#181818;stroke-width:1.0;"/><text fill="#000000" font-family="sans-serif" font-size="13" lengthAdjust="spacing" textLength="82.4878" x="216.6362" y="106.3638">createProfile</text><text fill="#000000" font-family="sans-serif" font-size="13" lengthAdjust="spacing" textLength="84.7603" x="215.5" y="121.4966">(other email)</text></g><!--link PendingApproval to Approved--><g id="link_PendingApproval_Approved"><path d="M115.35,208.0769 C151.65,230.7669 200.4522,261.2665 236.7022,283.9265 " fill="none" id="PendingApproval-to-Approved" style="stroke:#181818;stroke-width:1.0;"/><polygon fill="#181818" points="241.79,287.1069,236.2786,278.9445,237.5502,284.4566,232.0381,285.7282,241.79,287.1069" style="stroke:#181818;stroke-width:1.0;"/><text fill="#000000" font-family="sans-serif" font-size="13" lengthAdjust="spacing" textLength="106.0249" x="191.5" y="253.3638">Admin approves</text></g><!--link Approved to *end*--><g id="link_Approved_*end*"><path d="M280.5,337.7569 C280.5,357.3369 280.5,377.7869 280.5,392.0969 " fill="none" id="Approved-to-*end*" style="stroke:#181818;stroke-width:1.0;"/><polygon fill="#181818" points="280.5,398.0969,284.5,389.0969,280.5,393.0969,276.5,389.0969,280.5,398.0969" style="stroke:#181818;stroke-width:1.0;"/></g><!--SRC=[PP2zRiCm38HtFSLj_G7Sx1qAUEaSD6ERGR0OXu0Y6X9be6yV2gwDm1qbtdTtfB96GZyCKfEYdwOiiuyugTTQdFj-FQFhFlu65F2E8PDNEcQvSAIVz3pAVA1GGJVFyMKZZfG2ft5p_0-ANYclcDlhTwbzk762Npwis3PgEijqBeaICezNXLpsyGwmOAL1ANn9RKeAdErTG3FbNnFCN5YXWiEqm9rVozXjk7duj2i2sm5-kTwRCmojnhxCMjOSFckC3Q1IMjG3_bHid2LIbrl1WCcFL1vCxm00]--></g></svg>